<svg width="145" height="25" viewBox="0 0 145 25" fill="none" xmlns="http://www.w3.org/2000/svg">
<g clip-path="url(#clip0_0_230)">
<path fill-rule="evenodd" clip-rule="evenodd" d="M13.5 20.25L5.15654 24.4217L6.75 15.5859L0 9.32827L9.32827 8.03913L13.5 0L17.6717 8.03913L27 9.32827L20.25 15.5859L21.8435 24.4217L13.5 20.25Z" fill="#F8E71C"/>
<path fill-rule="evenodd" clip-rule="evenodd" d="M42.5 20.25L34.5649 24.4217L36.0804 15.5859L29.6607 9.32827L38.5324 8.03913L42.5 0L46.4676 8.03913L55.3393 9.32827L48.9196 15.5859L50.4351 24.4217L42.5 20.25Z" fill="#F8E71C"/>
<path fill-rule="evenodd" clip-rule="evenodd" d="M72.5 20.25L64.5649 24.4217L66.0804 15.5859L59.6607 9.32827L68.5324 8.03913L72.5 0L76.4676 8.03913L85.3393 9.32827L78.9196 15.5859L80.4351 24.4217L72.5 20.25Z" fill="#F8E71C"/>
<path fill-rule="evenodd" clip-rule="evenodd" d="M100 20.25V0L104.172 8.03913L113.5 9.32827L106.75 15.5859L108.343 24.4217L100 20.25Z" fill="#EBEBEB" fill-opacity="0.5"/>
<path fill-rule="evenodd" clip-rule="evenodd" d="M100.5 20.25V0L96.3283 8.03913L87 9.32827L93.75 15.5859L92.1565 24.4217L100.5 20.25Z" fill="#F8E71C"/>
<path fill-rule="evenodd" clip-rule="evenodd" d="M132.5 20.25L124.565 24.4217L126.08 15.5859L119.661 9.32827L128.532 8.03913L132.5 0L136.468 8.03913L145.339 9.32827L138.92 15.5859L140.435 24.4217L132.5 20.25Z" fill="#EBEBEB" fill-opacity="0.5"/>
</g>
<defs>
<clipPath id="clip0_0_230">
<rect width="146" height="27" fill="white"/>
</clipPath>
</defs>
</svg>
